<svg width="307" height="72" viewBox="0 0 307 72" fill="none" xmlns="http://www.w3.org/2000/svg">
<rect width="307" height="72" fill="white"/>
<path d="M90.0879 47.9323C96.8873 47.9323 101.592 44.0733 101.592 35.4415H89.6758V39.2666H96.3722C96.3379 39.4697 96.3035 39.6728 96.2348 39.842C95.6167 42.2793 93.1785 43.7348 90.0879 43.7348C85.967 43.7348 82.7733 40.1467 82.7733 35.9831C82.7733 31.8195 85.967 28.3667 90.0879 28.3667C92.1483 28.3667 94.037 29.2468 95.3763 30.6685L98.8447 27.7236C96.7843 25.4556 93.6593 24 90.0879 24C83.2884 24 78 29.3484 78 35.9831C78 42.5839 83.2884 47.9323 90.0879 47.9323Z" fill="#C72828"/>
<path d="M112.371 47.9323C116.938 47.9323 120.99 44.6827 120.99 39.7066C120.99 34.6968 116.938 31.4471 112.371 31.4471C107.804 31.4471 103.751 34.6968 103.751 39.7066C103.751 44.6827 107.804 47.9323 112.371 47.9323ZM112.371 43.8025C110.139 43.8025 108.319 42.1439 108.319 39.7066C108.319 37.2355 110.139 35.5769 112.371 35.5769C114.603 35.5769 116.423 37.2355 116.423 39.7066C116.423 42.1439 114.603 43.8025 112.371 43.8025Z" fill="#C72828"/>
<path d="M137.171 47.6276H142.768L136.621 39.0296C140.605 38.2172 142.356 35.2384 142.356 31.921C142.356 28.0959 140.021 24.3047 134.595 24.3047H125.151V47.6276H129.925V39.2666H131.539L137.171 47.6276ZM129.925 28.4683H134.114C136.346 28.4683 137.548 30.1608 137.548 32.0226C137.548 33.8843 136.415 35.4753 133.737 35.4753H129.925V28.4683Z" fill="#C72828"/>
<path d="M161.426 39.4697C161.426 34.6291 157.682 31.4471 153.115 31.4471C148.513 31.4471 144.599 34.6291 144.599 39.7405C144.599 44.615 148.204 47.9323 153.115 47.9323C155.931 47.9323 158.747 46.8491 160.258 44.8519L157.614 42.2454C156.652 43.3625 155.038 44.0056 153.424 44.0056C151.261 44.0056 149.75 42.9901 149.269 41.1622H161.357C161.391 40.4513 161.426 39.9097 161.426 39.4697ZM149.269 38.2849C149.75 36.1523 151.364 35.3061 153.184 35.3061C155.21 35.3061 156.79 36.4231 156.927 38.2849H149.269Z" fill="#C72828"/>
<path d="M170.576 47.9323C173.873 47.9323 177.307 46.3075 177.307 42.9901C177.307 41.7038 176.826 39.3343 172.98 38.3188L170.336 37.6417C169.443 37.4048 168.756 37.0324 168.756 36.2877C168.756 35.4753 169.581 34.9676 170.611 34.9676C171.675 34.9676 172.568 35.543 172.568 36.5924H176.861C176.895 32.8688 173.461 31.4471 170.542 31.4471C166.833 31.4471 164.258 33.7151 164.258 36.1523C164.258 37.811 164.807 40.079 168.928 41.1622L171.057 41.67C172.259 41.9746 172.809 42.3131 172.809 42.9901C172.809 43.9041 171.813 44.4457 170.508 44.4457C168.928 44.4457 168.138 43.464 168.138 42.5501H163.914C163.949 46.0367 167.211 47.9323 170.576 47.9323Z" fill="#C72828"/>
<path d="M190.216 31.8533H186.817V26.0649H182.318V31.8533H179.399V35.2722H182.318V47.6276H186.817V35.2722H190.216V31.8533Z" fill="#C72828"/>
<path d="M204.899 31.8533V33.7489C203.766 32.158 201.602 31.481 199.748 31.481C195.627 31.481 191.884 34.6291 191.884 39.7066C191.884 44.7842 195.627 47.9323 199.748 47.9323C201.534 47.9323 203.766 47.2214 204.899 45.6643V47.6276H209.398V31.8533H204.899ZM200.606 43.8025C198.34 43.8025 196.451 42.0085 196.451 39.7066C196.451 37.3709 198.34 35.6446 200.606 35.6446C202.701 35.6446 204.762 37.2694 204.762 39.7066C204.762 42.11 202.804 43.8025 200.606 43.8025Z" fill="#C72828"/>
<path d="M224.894 31.8533V39.9436C224.894 42.787 222.902 43.6333 221.288 43.6333C219.743 43.6333 218.232 42.5162 218.232 40.0451V31.8533H213.733V40.519C213.699 45.2581 215.897 48 220.086 48C221.666 48 224.207 47.1199 224.894 45.055V47.6276H229.393V31.8533H224.894Z" fill="#C72828"/>
<path d="M243.096 31.4471C241.104 31.4471 239.284 32.5642 238.391 35.2045V31.8533H233.927V47.6276H238.425V42.2116C238.425 37.7094 240.005 35.6107 242.306 35.6107C242.855 35.6107 243.645 35.6784 244.607 36.1862L245.637 31.9549C244.916 31.5825 243.954 31.4471 243.096 31.4471Z" fill="#C72828"/>
<path d="M259.73 31.8533V33.7489C258.597 32.158 256.433 31.481 254.579 31.481C250.458 31.481 246.715 34.6291 246.715 39.7066C246.715 44.7842 250.458 47.9323 254.579 47.9323C256.365 47.9323 258.597 47.2214 259.73 45.6643V47.6276H264.228V31.8533H259.73ZM255.437 43.8025C253.171 43.8025 251.282 42.0085 251.282 39.7066C251.282 37.3709 253.171 35.6446 255.437 35.6446C257.532 35.6446 259.593 37.2694 259.593 39.7066C259.593 42.11 257.635 43.8025 255.437 43.8025Z" fill="#C72828"/>
<path d="M278.077 31.4471C276.497 31.4471 273.956 32.3611 273.269 34.4937V31.8533H268.77V47.6276H273.269V39.5374C273.269 36.6601 275.261 35.8138 276.875 35.8138C278.42 35.8138 279.931 36.9309 279.931 39.4358V47.6276H284.43V38.9619C284.464 34.2228 282.266 31.4471 278.077 31.4471Z" fill="#C72828"/>
<path d="M298 31.8533H294.6V26.0649H290.102V31.8533H287.183V35.2722H290.102V47.6276H294.6V35.2722H298V31.8533Z" fill="#C72828"/>
<path fill-rule="evenodd" clip-rule="evenodd" d="M38 21.3863C34.0372 21.3863 30.2897 20.7619 27.4481 19.6282C24.1848 18.3263 22.3875 16.4282 22.3876 14.2834C22.3876 12.1388 24.1849 10.2407 27.4482 8.93878C29.4813 8.12774 31.9794 7.57907 34.6871 7.33148C34.252 6.7631 34.2921 5.94524 34.8103 5.42455C35.3735 4.85848 36.2867 4.85848 36.85 5.42455L39.0197 7.60545C39.583 8.17152 39.583 9.0894 39.0197 9.65546L36.8499 11.8362C36.5683 12.1193 36.1991 12.2608 35.83 12.2608C35.4609 12.2608 35.0918 12.1193 34.8101 11.8362C34.3867 11.4105 34.2818 10.7858 34.4953 10.2615C32.2425 10.4993 30.1862 10.9656 28.5124 11.6334C26.1207 12.5875 25.2722 13.6573 25.2722 14.2834C25.2722 14.9095 26.1207 15.9793 28.5124 16.9334C31.0234 17.9352 34.3929 18.4869 38 18.4869C41.6071 18.4869 44.9766 17.9352 47.4877 16.9334C49.8793 15.9793 50.7279 14.9096 50.7279 14.2834C50.7279 13.2673 48.7568 11.7627 44.9897 10.8531C44.2152 10.6661 43.7382 9.88348 43.9242 9.10505C44.1102 8.32662 44.8892 7.8471 45.6635 8.03424C50.7153 9.25392 53.6125 11.5318 53.6125 14.2836C53.6125 16.4282 51.8152 18.3263 48.552 19.6282C45.7103 20.7619 41.9628 21.3863 38 21.3863ZM60.0449 27.9316C68.2728 30.5632 70 33.8933 70 36.2235C70 36.2615 69.9994 36.2998 69.9986 36.3382C69.9677 44.5286 66.6348 52.2209 60.6036 58.0091C54.5626 63.807 46.535 67 38 67C29.465 67 21.4376 63.807 15.3964 58.0091C9.36525 52.2209 6.03231 44.5286 6.00144 36.3382C6.00058 36.2998 6 36.2615 6 36.2235C6 33.8933 7.72719 30.5632 15.9553 27.9314C21.8645 26.0416 29.6935 25.0008 38.0001 25.0008C43.5784 25.0008 48.9402 25.4709 53.651 26.3515L57.2414 20.8698C57.6795 20.2011 58.5738 20.0158 59.2392 20.456C59.9045 20.8963 60.0889 21.7952 59.6508 22.4639L56.6818 26.9969C57.8589 27.2804 58.9833 27.5921 60.0449 27.9316ZM67.1153 36.2235C67.1153 34.3804 64.071 32.2618 59.1701 30.6943C57.8716 30.279 56.4716 29.9072 54.9899 29.5802L49.0643 38.6274C53.4948 39.1688 57.5381 40.0324 60.8448 41.1683C64.7542 39.6827 67.1153 37.8463 67.1153 36.2235ZM20.3212 42.7103C25.4077 43.9025 31.5414 44.5469 38 44.5469C39.2755 44.5469 40.5381 44.5215 41.7825 44.472L44.0137 41.0656C42.0509 40.9376 40.0371 40.871 37.9996 40.871C31.5818 40.871 25.3965 41.5261 20.3212 42.7103ZM55.6789 42.7103C53.1254 42.1145 50.2905 41.6531 47.2866 41.3413L45.3765 44.2577C49.0908 43.96 52.5792 43.4368 55.6789 42.7103ZM37.9999 27.9001C29.9821 27.9001 22.4638 28.8925 16.8297 30.6943C11.929 32.2616 8.88466 34.3804 8.88466 36.2235C8.88466 37.8465 11.2459 39.6828 15.1553 41.1683C21.077 39.134 29.3596 37.9717 37.9994 37.9717C40.6627 37.9717 43.2912 38.083 45.828 38.2953L51.9243 28.9876C47.688 28.2772 42.9391 27.9001 37.9999 27.9001ZM9.41054 41.5064C11.9962 54.3603 23.8318 64.1008 38 64.1008C52.1682 64.1008 64.0038 54.3605 66.5895 41.5064C65.0919 42.547 62.9831 43.5758 60.0449 44.5154C54.1358 46.4053 46.3067 47.4461 38 47.4461C29.6933 47.4461 21.8643 46.4053 15.9551 44.5154C13.0169 43.5757 10.9081 42.5469 9.41054 41.5064Z" fill="#FFB84D"/>
</svg>
